<?xml version="1.0" encoding="UTF-8" standalone="no"?>
<!DOCTYPE svg PUBLIC "-//W3C//DTD SVG 1.1//EN" "http://www.w3.org/Graphics/SVG/1.1/DTD/svg11.dtd">
<svg width="1080px" height="1080px" version="1.1" xmlns="http://www.w3.org/2000/svg" xmlns:xlink="http://www.w3.org/1999/xlink" xml:space="preserve" xmlns:serif="http://www.serif.com/" style="fill-rule:evenodd;clip-rule:evenodd;stroke-linejoin:round;stroke-miterlimit:2;">
    <g transform="matrix(1,0,0,1,-1200,-2470)">
        <g id="i_yin" transform="matrix(1,0,0,1,1200,2470)">
            <rect x="0" y="0" width="1080" height="1080" style="fill:none;"/>
            <g transform="matrix(1,0,0,1,-1200,-2470)">
                <path d="M1934.76,2861.26C1934.79,2861.24 1934.82,2861.21 1934.85,2861.18C1938.09,2858.19 1943.15,2858.39 1946.15,2861.63C2050.26,2974.3 2026.34,3150.96 1924.55,3239.58C1820.17,3330.44 1610.6,3385.8 1498.67,3183.61C1422.5,3046.04 1465.58,2906.7 1552.51,2821.78C1610.69,2764.94 1688.53,2732.61 1763.39,2741.03C1827.05,2748.2 1888.94,2784.67 1934.76,2861.26ZM1952.35,2894.38C1957.51,2905.34 1962.38,2916.95 1966.95,2929.23C1968.49,2933.37 1966.38,2937.98 1962.24,2939.52C1958.11,2941.06 1953.5,2938.95 1951.96,2934.81C1908.73,2818.62 1836.96,2765.41 1761.6,2756.93C1691.28,2749.02 1618.34,2779.83 1563.69,2833.22C1481.37,2913.64 1440.54,3045.58 1512.67,3175.87C1618.12,3366.35 1815.71,3313.12 1914.04,3227.51C2003.29,3149.81 2028.87,3000.05 1952.35,2894.38Z" style="fill:rgb(128,128,128);"/>
            </g>
            <g transform="matrix(1,0,0,1,-1200,-2470)">
                <path d="M1496.17,2934.5C1492.78,2931.21 1491.75,2925.97 1493.97,2921.53C1496.32,2916.83 1498.29,2913.97 1499.62,2912.54L1502.61,2910.05L1506.76,2908.43L1509.3,2908.23L1512.1,2908.66L1514.73,2909.76L1516.81,2911.27L1519.75,2915.36L1521.01,2920.94C1521.1,2922.39 1520.98,2924.48 1520.7,2927.12C1529.43,2907.1 1540.67,2881.76 1556.2,2846.69C1558.65,2841.14 1565.09,2838.58 1570.69,2840.92C1574.5,2842.51 1576.97,2845.97 1577.46,2849.8C1582.29,2840.28 1587.51,2829.97 1593.15,2818.67C1595.83,2813.32 1602.24,2811.03 1607.7,2813.48C1612.62,2815.7 1615.18,2821.06 1613.99,2826.16C1621.41,2810.35 1629.67,2792.81 1638.95,2773C1641.53,2767.51 1648.02,2765.08 1653.57,2767.54C1659.11,2770 1661.67,2776.45 1659.33,2782.04C1642.95,2821.18 1629.3,2853.95 1617.82,2882.09C1637.75,2840.64 1659.44,2804.84 1681.57,2782.71L1684.02,2780.74L1687.36,2779.33L1690.9,2779.03L1694.14,2779.76L1697.79,2782.08L1699.33,2783.89L1700.64,2786.44L1701.26,2789.23L1701.11,2792.46C1701.07,2792.68 1701.01,2792.96 1700.91,2793.31C1702.7,2790.72 1704.44,2788.25 1706.13,2785.9C1709.58,2781.12 1716.16,2779.86 1721.14,2783.01C1725.01,2785.47 1726.88,2789.93 1726.18,2794.22C1737.64,2776.11 1744.63,2765.91 1747.99,2761.97L1750.94,2759.02L1753.6,2757.35L1757.01,2756.33L1760.75,2756.43L1764.36,2757.8L1767.26,2760.24L1767.75,2760.98C1768.31,2760.37 1768.87,2759.76 1769.42,2759.15C1773.25,2755.01 1779.57,2754.37 1784.14,2757.68C1788.72,2760.98 1790.11,2767.18 1787.38,2772.11C1752.52,2835.12 1723.59,2893.83 1699.56,2947.66C1705.55,2937.6 1711.88,2927.36 1718.64,2916.82C1723.78,2908.8 1788.49,2829.29 1822.08,2774.95C1823.04,2773.36 1824.02,2771.77 1825,2770.16C1825.01,2770.14 1825.02,2770.12 1825.04,2770.1C1828.24,2764.85 1835.07,2763.18 1840.33,2766.36C1845.58,2769.54 1847.28,2776.37 1844.12,2781.64C1844.1,2781.66 1844.09,2781.68 1844.08,2781.7C1843.15,2783.24 1842.2,2784.81 1841.22,2786.39C1835.95,2795.05 1830.88,2803.42 1825.99,2811.53C1826.24,2811.63 1826.49,2811.75 1826.73,2811.87C1832.07,2814.57 1834.33,2821.01 1831.84,2826.45C1822.93,2845.97 1814.46,2864.95 1806.42,2883.37C1816.84,2865.27 1828.46,2845.45 1841.5,2823.48C1844.53,2818.37 1851.02,2816.53 1856.28,2819.3C1858.68,2820.56 1860.45,2822.59 1861.41,2824.94C1865.13,2818.98 1868.95,2812.89 1872.89,2806.67C1876.08,2801.63 1882.68,2799.99 1887.86,2802.96C1893.04,2805.93 1894.96,2812.45 1892.22,2817.75C1883.77,2834.1 1857.55,2884.86 1827.13,2960.73C1841.67,2932.21 1860.06,2896.53 1883.44,2851.57C1886.27,2846.14 1892.94,2844 1898.4,2846.78C1903.21,2849.24 1905.48,2854.71 1904.07,2859.72C1908.94,2862.3 1911.25,2868.14 1909.31,2873.43C1904.12,2887.51 1899.34,2900.6 1894.91,2912.85C1897.89,2910.07 1902.27,2909.05 1906.32,2910.52C1911.86,2912.53 1914.87,2918.5 1913.21,2924.15C1908.11,2941.5 1903.51,2957 1899.3,2971.05C1904.46,2960.35 1910.13,2948.8 1916.42,2936.22C1919.14,2930.78 1925.72,2928.52 1931.2,2931.15C1936.69,2933.77 1939.06,2940.3 1936.54,2945.84C1935.84,2947.36 1935.16,2948.86 1934.48,2950.34C1938.42,2953 1940.34,2957.99 1938.91,2962.76C1938.31,2964.8 1937.7,2966.83 1937.1,2968.83C1938.91,2968.48 1940.84,2968.57 1942.72,2969.18C1947.7,2970.81 1950.76,2975.62 1950.37,2980.64C1973.78,2926.09 1986.32,2897.49 1991.13,2887.27C1993.34,2882.56 1995.02,2880.34 1995.44,2879.91L1997.76,2878.05L2000.18,2876.96L2003.71,2876.45L2006.75,2876.93L2010.03,2878.53L2012.33,2880.74L2013.92,2883.51L2014.69,2887.13C2014.72,2887.72 2014.46,2890.79 2012.68,2895.68C2008.34,2907.59 1994.05,2943.1 1976.83,2985.41C1979.87,2983.23 1983.93,2982.64 1987.63,2984.18C1993.27,2986.54 1995.96,2993 1993.66,2998.66C1992.21,3002.26 1985.58,3018.59 1976.94,3040.37C1980.85,3033.06 1985.24,3025.14 1990.18,3016.49C1993.08,3011.42 1999.39,3009.45 2004.66,3011.96C2009.93,3014.47 2012.37,3020.62 2010.26,3026.06C2009.8,3027.25 2000.64,3053.02 1990.61,3081.66C1998.69,3071.08 2003.81,3065 2006.85,3061.95C2009,3059.8 2010.68,3058.59 2011.8,3057.94L2016.64,3056.29L2020.03,3056.36L2022.74,3057.17L2025.9,3059.23L2028.03,3061.85L2029.2,3064.53L2029.69,3067.44L2028.93,3072.92C2027.99,3076.12 2021.33,3098.61 2013.75,3113.67C2009.28,3122.56 2003.79,3128.96 1999.34,3131.18C1994.17,3133.76 1987.95,3131.95 1984.93,3127.16C1978.92,3135.41 1972.24,3144.73 1964.9,3155.17C1961.73,3159.68 1955.74,3161.2 1950.81,3158.74C1949.95,3158.31 1949.17,3157.79 1948.48,3157.18C1943.94,3166.09 1938.22,3175.91 1930.16,3188C1926.92,3192.87 1924.37,3195.81 1922.67,3197.27L1919.5,3199.43L1915.52,3200.66L1911.79,3200.58L1908,3199.14C1907.76,3199.7 1907.53,3200.26 1907.29,3200.82C1905.11,3206.01 1899.42,3208.76 1894,3207.25C1888.58,3205.73 1885.14,3200.42 1885.98,3194.86C1886.07,3194.24 1886.18,3193.55 1886.3,3192.76C1884.54,3193.11 1882.68,3193.03 1880.87,3192.47C1880.06,3192.23 1879.31,3191.9 1878.61,3191.49C1877.2,3195.68 1875.84,3199.76 1874.52,3203.71C1873.05,3208.12 1869.07,3211.03 1864.66,3211.32C1860.71,3223.01 1854.34,3233.86 1850.73,3245.68C1849.01,3251.34 1843.17,3254.66 1837.42,3253.26C1831.68,3251.86 1828.03,3246.22 1829.1,3240.41C1830.38,3233.46 1831.61,3226.8 1832.78,3220.39C1829.3,3231.12 1825.48,3242.66 1821.24,3255.19C1819.33,3260.83 1813.33,3263.97 1807.61,3262.33C1801.88,3260.69 1798.46,3254.84 1799.83,3249.04C1814.19,3188.41 1823.81,3150.03 1832.56,3117.86C1824.15,3139.56 1817.62,3157.32 1812.45,3172.1C1806.11,3193.36 1798.72,3217.64 1789.61,3246.68C1788.58,3250.18 1787.53,3253.57 1786.33,3257.07C1784.35,3262.84 1778.09,3265.95 1772.29,3264.04C1769.83,3263.23 1767.84,3261.64 1766.5,3259.63C1764.66,3266.28 1762.77,3273.15 1760.82,3280.27C1759.22,3286.13 1753.22,3289.63 1747.33,3288.14C1741.45,3286.65 1737.83,3280.72 1739.21,3274.81C1743.69,3255.47 1761.22,3180.03 1790.59,3087.41C1789.64,3089.77 1788.83,3091.89 1788.03,3093.98C1781.43,3111.14 1740.19,3257.91 1734.49,3268.86L1732.71,3271.52L1729.81,3273.94L1726.25,3275.29L1722.69,3275.4L1718.17,3273.8L1716.22,3272.26L1714.47,3270.04L1713.31,3267.39L1712.81,3264.39C1712.73,3262.49 1713.83,3254.91 1717.14,3240.01C1737.41,3148.8 1763.17,3067.43 1788,3000.29C1739.07,3103.01 1740.48,3151.29 1709.37,3261.98C1707.75,3267.76 1701.83,3271.22 1695.99,3269.79C1690.15,3268.36 1686.5,3262.56 1687.72,3256.68C1688.34,3253.75 1688.94,3250.85 1689.54,3248C1687.66,3254.86 1685.71,3261.95 1683.67,3269.29C1679.59,3283.97 1676.06,3293.8 1673.51,3299C1672.53,3300.99 1671.6,3302.5 1670.81,3303.58L1667.41,3307.01L1663.66,3308.85L1659.79,3309.32L1657.08,3308.88L1654.59,3307.85L1651.18,3305.01C1649.78,3303.32 1647.4,3298.15 1647.98,3289.06C1648.38,3282.54 1649.86,3272.31 1652.64,3258.5C1650.83,3259.11 1648.84,3259.28 1646.84,3258.87C1640.81,3257.65 1636.91,3251.78 1638.11,3245.75C1638.12,3245.74 1638.12,3245.73 1638.12,3245.72C1638.46,3244.02 1638.81,3242.33 1639.16,3240.63C1666.82,3105.11 1683.04,3036.45 1721.51,2954.42C1658.54,3058.93 1635.11,3141.3 1582.59,3317.25C1580.91,3322.89 1575.14,3326.25 1569.41,3324.93C1563.67,3323.61 1559.95,3318.07 1560.9,3312.27C1563.02,3299.25 1567.16,3273.88 1575.66,3237.48C1571.3,3235.06 1568.97,3229.9 1570.31,3224.86C1570.32,3224.85 1570.32,3224.83 1570.33,3224.82C1570.52,3224.09 1570.72,3223.36 1570.91,3222.63C1573.71,3212.03 1580.64,3184.6 1591.3,3147.58C1576.98,3189.26 1567.58,3219.96 1564.2,3231C1562.42,3236.8 1556.33,3240.12 1550.5,3238.46C1544.66,3236.81 1541.22,3230.79 1542.75,3224.92C1545.52,3214.31 1548.13,3204.18 1550.62,3194.5C1549.17,3194.85 1547.63,3194.91 1546.07,3194.63C1540.15,3193.58 1536.14,3188.03 1536.99,3182.08C1537.19,3180.68 1537.39,3179.28 1537.6,3177.88C1537.27,3179.1 1536.99,3180.15 1536.76,3181.03C1535.22,3186.75 1529.49,3190.27 1523.69,3189.06C1517.9,3187.84 1514.07,3182.3 1514.96,3176.45C1516.63,3165.62 1518.17,3155.52 1519.63,3146.03C1517.63,3146.95 1515.33,3147.29 1513.01,3146.88C1507.34,3145.87 1503.36,3140.69 1503.86,3134.95C1504.81,3123.82 1505.79,3113.42 1506.82,3103.63C1505.82,3107.78 1504.81,3112.04 1503.78,3116.42C1502.38,3122.31 1496.55,3126.01 1490.63,3124.77C1484.71,3123.53 1480.86,3117.79 1481.96,3111.84C1485.06,3094.98 1487.98,3079.62 1490.74,3065.56C1488.06,3069.04 1483.48,3070.72 1479.03,3069.53C1473.4,3068.03 1469.87,3062.43 1470.94,3056.7C1475.2,3034.03 1490.11,2963.17 1496.17,2934.5Z" style="fill:rgb(128,128,128);"/>
            </g>
        </g>
    </g>
</svg>
