<?xml version="1.0" encoding="UTF-8" standalone="no"?>
<!DOCTYPE svg PUBLIC "-//W3C//DTD SVG 1.1//EN" "http://www.w3.org/Graphics/SVG/1.1/DTD/svg11.dtd">
<svg width="1080px" height="1080px" version="1.1" xmlns="http://www.w3.org/2000/svg" xmlns:xlink="http://www.w3.org/1999/xlink" xml:space="preserve" xmlns:serif="http://www.serif.com/" style="fill-rule:evenodd;clip-rule:evenodd;stroke-linejoin:round;stroke-miterlimit:2;">
    <g transform="matrix(1,0,0,1,-1200,0)">
        <g id="a_yang" transform="matrix(1,0,0,1,1200,0)">
            <rect x="0" y="0" width="1080" height="1080" style="fill:none;"/>
            <g transform="matrix(1.28323,0,0,1.00263,-1681.38,54.8702)">
                <path d="M1972.32,803.718C1987.3,778.536 1990.31,736.791 1989.75,678.209C1988.88,586.372 1978.3,454.507 1983.91,280.736C1984.51,262.106 1978.32,246.867 1966.71,234.295C1954.08,220.612 1935.35,210.068 1911.88,201.733C1797.87,161.247 1574.9,174.527 1372.63,175.307C1369.19,175.321 1366.39,171.756 1366.38,167.352C1366.37,162.949 1369.15,159.363 1372.6,159.349C1576.13,158.564 1800.49,145.616 1915.21,186.356C1967.86,205.05 1997.84,235.918 1996.37,281.395C1990.77,454.794 2001.35,586.375 2002.22,678.015C2002.82,741.557 1998.38,786.502 1982.05,813.696C1981.04,815.389 1979.23,817.322 1976.44,819.056C1972.31,821.634 1965.24,824.349 1955.73,826.945C1904.92,840.813 1780.05,853.689 1672.3,850.365C1608.93,848.409 1551.44,840.746 1518.08,824.685C1502.09,816.992 1491.37,806.989 1486.9,795.513C1483.94,787.896 1481.42,760.934 1479.86,722.191C1473.88,573.836 1477.13,245.879 1477.51,208.505C1477.55,204.102 1480.38,200.572 1483.82,200.628C1487.26,200.684 1490.02,204.305 1489.97,208.708C1489.6,246.007 1486.34,573.31 1492.31,721.369C1493.19,743.315 1494.28,761.277 1495.61,773.688C1496.38,780.843 1497.1,785.907 1498.06,788.394C1499.75,792.711 1502.84,796.5 1506.98,800.033C1514.3,806.28 1524.69,811.435 1537.4,815.792C1570.77,827.233 1619.58,832.775 1672.6,834.411C1766,837.293 1872.39,827.941 1931.25,816.351C1946.06,813.435 1957.8,810.402 1965.45,807.365C1968.65,806.095 1971.93,803.974 1972.32,803.718Z" style="fill:rgb(128,128,128);"/>
            </g>
        </g>
    </g>
</svg>
